<?xml version="1.0" encoding="UTF-8" standalone="no"?>
<svg
   width="284"
   height="78"
   version="1.1"
   id="svg1"
   sodipodi:docname="uigf.svg"
   inkscape:version="1.3.2 (091e20e, 2023-11-25, custom)"
   xmlns:inkscape="http://www.inkscape.org/namespaces/inkscape"
   xmlns:sodipodi="http://sodipodi.sourceforge.net/DTD/sodipodi-0.dtd"
   xmlns="http://www.w3.org/2000/svg"
   xmlns:svg="http://www.w3.org/2000/svg">
  <defs
     id="defs1" />
  <sodipodi:namedview
     id="namedview1"
     pagecolor="#ffffff"
     bordercolor="#cccccc"
     borderopacity="1"
     inkscape:showpageshadow="0"
     inkscape:pageopacity="1"
     inkscape:pagecheckerboard="0"
     inkscape:deskcolor="#d1d1d1"
     inkscape:zoom="4.0340442"
     inkscape:cx="155.79899"
     inkscape:cy="41.273717"
     inkscape:window-width="2560"
     inkscape:window-height="1351"
     inkscape:window-x="-9"
     inkscape:window-y="-9"
     inkscape:window-maximized="1"
     inkscape:current-layer="svg1" />
  <g
     id="UIGF"
     transform="translate(-60,-170)">
    <polygon
       id="UIGF.U"
       style="fill:#000000;fill-opacity:1;stroke:none"
       points="60,170 60,248 123,248 123,170 107,170 107,233 75,233 75,170 " />
    <polygon
       id="UIGF.I"
       style="fill:#000000;fill-opacity:1;stroke:none"
       points="150,170 150,248 167,248 167,170 " />
    <polygon
       id="UIGF.G"
       style="fill:#000000;fill-opacity:1;stroke:none"
       points="209,184 255,184 258,170 194,170 194,248 258,248 258,205 225,205 222,218 243,218 243,233 209,233 " />
    <polygon
       id="UIGF.F"
       style="fill:#000000;fill-opacity:1;stroke:none"
       points="341,184 344,170 282,170 282,248 297,248 297,218 341,218 344,205 296,205 296,184 " />
  </g>
</svg>
